<svg height="512pt" viewBox="0 0 512 512" width="512pt" xmlns="http://www.w3.org/2000/svg"><path d="m352 181.332031c0 94.257813-76.410156 170.667969-170.667969 170.667969-94.253906 0-170.664062-76.410156-170.664062-170.667969 0-94.253906 76.410156-170.664062 170.664062-170.664062 94.257813 0 170.667969 76.410156 170.667969 170.664062zm0 0" fill="#fafafa"/><path d="m500.03125 442.28125-169.171875-169.171875c-4.160156-4.160156-10.921875-4.160156-15.082031 0l-42.667969 42.667969c-4.160156 4.160156-4.160156 10.921875 0 15.082031l169.171875 169.171875c7.617188 7.617188 18.15625 11.96875 28.886719 11.96875 22.507812 0 40.832031-18.304688 40.832031-40.832031 0-10.773438-4.375-21.289063-11.96875-28.886719zm0 0" fill="#455a64"/><path d="m181.332031 362.667969c-99.988281 0-181.332031-81.34375-181.332031-181.335938 0-99.988281 81.34375-181.332031 181.332031-181.332031 99.992188 0 181.335938 81.34375 181.335938 181.332031 0 99.992188-81.34375 181.335938-181.335938 181.335938zm0-341.335938c-88.234375 0-160 71.765625-160 160s71.765625 160 160 160 160-71.765625 160-160-71.765625-160-160-160zm0 0"/><path d="m471.167969 512c-10.753907 0-21.269531-4.351562-28.886719-11.96875l-169.171875-169.171875c-4.160156-4.160156-4.160156-10.921875 0-15.082031s10.921875-4.160156 15.082031 0l169.175782 169.171875c3.625 3.625 8.636718 5.71875 13.78125 5.71875 10.773437 0 19.519531-8.746094 19.519531-19.5 0-5.140625-2.09375-10.175781-5.71875-13.78125l-169.171875-169.171875c-4.160156-4.160156-4.160156-10.925782 0-15.085938s10.921875-4.160156 15.082031 0l169.171875 169.175782c7.617188 7.59375 11.96875 18.109374 11.96875 28.863281 0 22.527343-18.304688 40.832031-40.832031 40.832031zm0 0"/><path d="m117.332031 256c-3.433593 0-6.804687-1.664062-8.875-4.757812l-42.664062-64c-2.390625-3.582032-2.390625-8.253907 0-11.839844l42.664062-64c3.285157-4.90625 9.941407-6.1875 14.785157-2.964844 4.886718 3.265625 6.230468 9.898438 2.964843 14.785156l-38.71875 58.109375 38.71875 58.09375c3.265625 4.882813 1.941407 11.519531-2.964843 14.78125-1.8125 1.21875-3.859376 1.792969-5.910157 1.792969zm0 0"/><path d="m160 277.332031c-.851562 0-1.707031-.105469-2.582031-.320312-5.738281-1.425781-9.195313-7.230469-7.765625-12.925781l42.667968-170.667969c1.40625-5.714844 7.144532-9.195313 12.925782-7.765625 5.742187 1.429687 9.195312 7.234375 7.765625 12.929687l-42.664063 170.664063c-1.195312 4.867187-5.546875 8.085937-10.347656 8.085937zm0 0"/><path d="m245.332031 256c-2.046875 0-4.09375-.574219-5.90625-1.792969-4.886719-3.261719-6.230469-9.898437-2.96875-14.78125l38.722657-58.09375-38.722657-58.089843c-3.261719-4.886719-1.941406-11.519532 2.96875-14.785157 4.863281-3.242187 11.496094-1.960937 14.78125 2.96875l42.667969 64c2.390625 3.582031 2.390625 8.253907 0 11.839844l-42.667969 64c-2.070312 3.070313-5.4375 4.734375-8.875 4.734375zm0 0"/></svg>