<svg height="490pt" viewBox="0 -64 490.66682 490" width="490pt" xmlns="http://www.w3.org/2000/svg"><g fill="#009688"><path d="m160.011719 320.328125c-17.644531 0-32-14.359375-32-32 0-17.644531 14.355469-32 32-32 17.640625 0 32 14.355469 32 32 0 17.640625-14.359375 32-32 32zm0 0"/><path d="m245.34375 320.328125c-17.640625 0-32-14.359375-32-32 0-17.644531 14.359375-32 32-32 17.644531 0 32 14.355469 32 32 0 17.640625-14.355469 32-32 32zm0 0"/><path d="m330.675781 320.328125c-17.640625 0-32-14.359375-32-32 0-17.644531 14.359375-32 32-32 17.644531 0 32 14.355469 32 32 0 17.640625-14.355469 32-32 32zm0 0"/></g><path d="m117.34375 362.992188c-3.539062 0-7.019531-1.769532-9.046875-5.011719l-106.664063-170.667969c-2.199218-3.5-2.175781-7.957031.0625-11.433594l107.988282-168c3.203125-4.949218 9.792968-6.378906 14.742187-3.199218 4.949219 3.175781 6.402344 9.769531 3.199219 14.738281l-104.359375 162.304687 103.082031 164.929688c3.113282 4.992187 1.597656 11.582031-3.394531 14.699218-1.703125 1.128907-3.667969 1.640626-5.609375 1.640626zm0 0"/><path d="m373.34375 362.992188c-1.941406 0-3.902344-.511719-5.652344-1.621094-4.992187-3.113282-6.527344-9.707032-3.394531-14.699219l103.128906-165.011719-103.128906-165.015625c-3.113281-4.988281-1.597656-11.582031 3.394531-14.695312 4.949219-3.09375 11.5625-1.621094 14.675782 3.390625l106.667968 170.667968c2.175782 3.453126 2.175782 7.847657 0 11.304688l-106.667968 170.667969c-2.003907 3.242187-5.480469 5.011719-9.023438 5.011719zm0 0"/><path d="m160.011719 320.328125c-17.644531 0-32-14.359375-32-32 0-17.644531 14.355469-32 32-32 17.640625 0 32 14.355469 32 32 0 17.640625-14.359375 32-32 32zm0-42.667969c-5.867188 0-10.667969 4.777344-10.667969 10.667969 0 5.886719 4.800781 10.664063 10.667969 10.664063 5.867187 0 10.664062-4.777344 10.664062-10.664063 0-5.890625-4.796875-10.667969-10.664062-10.667969zm0 0"/><path d="m245.34375 320.328125c-17.640625 0-32-14.359375-32-32 0-17.644531 14.359375-32 32-32 17.644531 0 32 14.355469 32 32 0 17.640625-14.355469 32-32 32zm0-42.667969c-5.867188 0-10.667969 4.777344-10.667969 10.667969 0 5.886719 4.800781 10.664063 10.667969 10.664063s10.667969-4.777344 10.667969-10.664063c0-5.890625-4.800781-10.667969-10.667969-10.667969zm0 0"/><path d="m330.675781 320.328125c-17.640625 0-32-14.359375-32-32 0-17.644531 14.359375-32 32-32 17.644531 0 32 14.355469 32 32 0 17.640625-14.355469 32-32 32zm0-42.667969c-5.863281 0-10.664062 4.777344-10.664062 10.667969 0 5.886719 4.800781 10.664063 10.664062 10.664063 5.867188 0 10.667969-4.777344 10.667969-10.664063 0-5.890625-4.800781-10.667969-10.667969-10.667969zm0 0"/></svg>